<svg xmlns="http://www.w3.org/2000/svg" width="100" height="25" fill="none"><path fill="currentColor" d="m85.335 15.792 2.796-6.822 2.794 6.822h-5.59ZM90.237.585h-4.213l-9.06 22.12-4.074-7.286a7.837 7.837 0 0 0 3.472-3.742 7.952 7.952 0 0 0 .454-5.11 7.88 7.88 0 0 0-2.758-4.308A7.73 7.73 0 0 0 69.261.585h-8.834v10.938H50.66v4.801h4.187a6.869 6.869 0 0 1-3.153 2.38 6.789 6.789 0 0 1-3.928.238c-1.304-.31-2.49-1-3.41-1.985a6.965 6.965 0 0 1-1.772-3.553 7.007 7.007 0 0 1 .451-3.952A6.918 6.918 0 0 1 45.56 6.4a6.806 6.806 0 0 1 3.768-1.147A6.807 6.807 0 0 1 53.1 6.388l3.59-3.629a11.792 11.792 0 0 0-7.774-2.55 11.81 11.81 0 0 0-7.563 3.129 12.055 12.055 0 0 0-3.774 7.329 12.118 12.118 0 0 0 1.801 8.06H27.177v-4.004h8.18V9.656h-8.18V5.652h10.29V.585H0v5.069h8.436v18.141h5.285V5.654h8.436v18.141h13.719l4.132-4.177a11.89 11.89 0 0 0 4.96 3.738 11.758 11.758 0 0 0 6.145.71 11.816 11.816 0 0 0 5.665-2.51 12.004 12.004 0 0 0 3.65-5.05v7.29h5.013v-7.472h2.418l4.177 7.471h10.026l1.312-3.2h9.524l1.31 3.2h5.542L90.237.585Zm-21.24 10.939h-3.561V5.388h3.561a3.02 3.02 0 0 1 2.1.923c.553.574.863 1.343.863 2.145 0 .8-.31 1.57-.863 2.144a3.02 3.02 0 0 1-2.1.924Z"></path></svg>